# xmcd CD database file
#
# Track frame offsets:
#	150
#	14625
#	24722
#	38167
#	50742
#	63822
#	77090
#	89125
#	102442
#	116355
#	129290
#	144055
#	157535
#	170652
#	183557
#	195512
#
# Disc length: 2791 seconds
#
# Revision: 3
# Processed by: cddbd v1.5.2PL0 Copyright (c) Steve Scherf et al.
# Submitted via: CDex 1.51
#
DISCID=ce0ae510
DTITLE=Billie Holiday - Blue Billie
DYEAR=2002
DGENRE=Jazz
TTITLE0=Gloomy Sunday
TTITLE1=Trav'lin' All Alone
TTITLE2=Body And Soul
TTITLE3=Where Is The Sun
TTITLE4=You Let Me Down
TTITLE5=God Bless The Child
TTITLE6=Billie's Blues
TTITLE7=I Cover The Waterfront
TTITLE8=Moanin' Low
TTITLE9=Am I Blue?
TTITLE10=Loveless Love
TTITLE11=Night And Day
TTITLE12=St. Louis Blues
TTITLE13=Why Was I Born?
TTITLE14=Ghost Of Yesterday
TTITLE15=Long Gone Blues
EXTD=YEAR: 2002
EXTT0=
EXTT1=
EXTT2=
EXTT3=
EXTT4=
EXTT5=
EXTT6=
EXTT7=
EXTT8=
EXTT9=
EXTT10=
EXTT11=
EXTT12=
EXTT13=
EXTT14=
EXTT15=
PLAYORDER=
